<?xml version="1.0" standalone="no"?>
<!DOCTYPE svg PUBLIC "-//W3C//DTD SVG 1.1//EN" "http://www.w3.org/Graphics/SVG/1.1/DTD/svg11.dtd" >
<svg xmlns="http://www.w3.org/2000/svg" xmlns:xlink="http://www.w3.org/1999/xlink" version="1.1">
<metadata></metadata>
<defs>
<font id="simpelmedium" horiz-adv-x="1228" >
<font-face units-per-em="2048" ascent="1638" descent="-410" />
<missing-glyph horiz-adv-x="593" />
<glyph horiz-adv-x="0" />
<glyph horiz-adv-x="682" />
<glyph unicode=" "  horiz-adv-x="593" />
<glyph unicode="&#x09;" horiz-adv-x="593" />
<glyph unicode="&#xa0;" horiz-adv-x="593" />
<glyph unicode="!" horiz-adv-x="483" d="M102 123q0 -56 41 -94.5t99 -38.5q57 0 98 39t41 94q0 54 -41 92.5t-98 38.5q-58 0 -99 -38.5t-41 -92.5zM143 1430h197l-10 -1024h-176z" />
<glyph unicode="&#x22;" horiz-adv-x="649" d="M82 1438h184l-24 -498h-136zM383 1438h184l-24 -498h-135z" />
<glyph unicode="#" horiz-adv-x="1392" d="M82 391v168h250l67 340h-317v168h350l74 367h172l-76 -367h289l74 367h172l-76 -367h250v-168h-285l-70 -340h355v-168h-389l-82 -391h-160l78 391h-295l-82 -391h-160l78 391h-217zM498 559h293l67 340h-291z" />
<glyph unicode="$" horiz-adv-x="1251" d="M143 430h238q0 -65 61 -140.5t150 -103.5v494l-25 6q-143 31 -245.5 135.5t-102.5 245.5q0 155 104.5 265.5t268.5 129.5v140h156v-146q143 -28 240 -123t97 -215h-225q0 47 -30.5 85t-81.5 57v-404l4 -2q438 -93 438 -430q0 -180 -124.5 -306t-317.5 -145v-102h-156v109 q-192 28 -320.5 153.5t-128.5 296.5zM436 1071q0 -53 38.5 -104.5t98.5 -65.5q7 -2 19 -4v371q-68 -21 -112 -79.5t-44 -117.5zM748 182q102 22 160.5 90.5t58.5 137.5q0 92 -59.5 150t-155.5 81q-2 0 -4 2v-461z" />
<glyph unicode="%" horiz-adv-x="1558" d="M82 1106q0 129 91 220t220 91q130 0 222 -91t92 -220q0 -130 -91.5 -221.5t-222.5 -91.5q-129 0 -220 91.5t-91 221.5zM225 27h195l911 1419h-192zM225 1100q0 -69 47.5 -116.5t116.5 -47.5q68 0 116 47.5t48 116.5q0 68 -48.5 116t-115.5 48q-69 0 -116.5 -48 t-47.5 -116zM852 369q0 129 91 220t220 91q130 0 222 -91t92 -220q0 -131 -91.5 -222.5t-222.5 -91.5q-129 0 -220 92t-91 222zM995 362q0 -69 47.5 -116t116.5 -47q68 0 116 47t48 116q0 68 -48.5 116t-115.5 48q-69 0 -116.5 -48t-47.5 -116z" />
<glyph unicode="&#x26;" horiz-adv-x="1251" d="M102 424q0 75 19.5 139t47.5 102t55.5 65t47.5 38l19 10q-5 4 -14 11t-31.5 33t-40 56.5t-31.5 80t-14 104.5q0 163 122 277t293 114q169 0 289.5 -109t126.5 -268h-194q-6 83 -69.5 138t-152.5 55q-92 0 -155.5 -59.5t-63.5 -147.5q0 -87 63 -146t156 -59v-176 q-117 0 -197.5 -74t-80.5 -184q0 -109 80.5 -184.5t197.5 -75.5t198 75.5t81 184.5v2h-158v182h473v-182h-118v-2q0 -122 -64.5 -224.5t-174 -161t-237.5 -58.5q-127 0 -236 58.5t-173 161t-64 224.5z" />
<glyph unicode="'" horiz-adv-x="358" d="M82 1438h194l-26 -498h-141z" />
<glyph unicode="(" horiz-adv-x="663" d="M143 659q0 130 14.5 242.5t48.5 223t61.5 180.5t81.5 195q9 20 13 30l158 -64q-87 -182 -136.5 -403.5t-51.5 -403.5q2 -178 50.5 -390.5t137.5 -415.5l-158 -64q-49 115 -69.5 164.5t-56.5 151.5t-51.5 173t-28.5 173t-13 208z" />
<glyph unicode=")" horiz-adv-x="663" d="M143 -147q89 204 138 416t51 390q-2 181 -52 403t-137 404l158 64q105 -244 140 -352q79 -246 79 -519q0 -106 -13 -208t-28.5 -173t-51.5 -173t-56.5 -151.5t-69.5 -164.5z" />
<glyph unicode="*" horiz-adv-x="864" d="M82 1130l221 -73l-141 -195l129 -84l137 189l143 -189l123 84l-141 195l229 73l-57 148l-217 -74v240h-154l-6 -240l-217 74z" />
<glyph unicode="+" d="M156 487v172h372v373h172v-373h373v-172h-373v-372h-172v372h-372z" />
<glyph unicode="," horiz-adv-x="462" d="M82 -274l94 497h205l-145 -497h-154z" />
<glyph unicode="-" horiz-adv-x="942" d="M143 498v164h656v-164h-656z" />
<glyph unicode="." horiz-adv-x="483" d="M102 123q0 -56 41 -94.5t99 -38.5q57 0 98 39t41 94q0 54 -41 92.5t-98 38.5q-58 0 -99 -38.5t-41 -92.5z" />
<glyph unicode="/" horiz-adv-x="821" d="M82 -297l467 1743h190l-467 -1743h-190z" />
<glyph unicode="0" horiz-adv-x="1230" d="M72 727q0 -203 71.5 -374.5t196.5 -272t276 -100.5q113 0 214 59.5t173 160t114 238t42 289.5q0 151 -42 288t-114 236t-173 157t-214 58q-151 0 -276 -98.5t-196.5 -268.5t-71.5 -372zM283 727q0 247 90.5 399t242.5 152t243 -152t91 -399q0 -250 -91 -403.5 t-243 -153.5t-242.5 153.5t-90.5 403.5z" />
<glyph unicode="1" horiz-adv-x="768" d="M143 1147v196l482 121v-1464h-201v1212z" />
<glyph unicode="2" horiz-adv-x="1232" d="M156 0v63l667 801q10 11 24 29t38 68t24 92q0 106 -51.5 165.5t-171.5 59.5q-258 0 -258 -307h-201q0 107 30.5 194.5t78 142t109 91.5t119 52t112.5 15q201 0 317.5 -113.5t116.5 -299.5q0 -64 -30 -138t-60 -115l-29 -42l-467 -570h619v-188h-987z" />
<glyph unicode="3" horiz-adv-x="1167" d="M150 432h184q0 -30 7.5 -63t26 -67t45 -61t68.5 -44t92 -17q66 0 118 26.5t82 68.5t45.5 88t15.5 90q0 129 -69.5 184t-199.5 55v172q115 0 172.5 66t55.5 168q-2 74 -52.5 129t-126.5 55q-57 0 -99 -16.5t-64.5 -39t-36.5 -56.5t-17.5 -59t-5.5 -56h-184q0 60 9.5 113.5 t37 109t71 95t118 64.5t171.5 25q162 0 265.5 -104t103.5 -254q0 -67 -16 -123.5t-38.5 -90t-45 -57.5t-38.5 -33l-16 -9q8 -3 21 -9.5t46.5 -34t59.5 -62t47 -97t21 -135.5q0 -214 -118.5 -333.5t-332.5 -119.5q-198 0 -310.5 115.5t-112.5 316.5z" />
<glyph unicode="4" horiz-adv-x="1212" d="M45 287v59l834 1120h47v-997h200v-186h-200v-283h-197v285zM369 469h360v487z" />
<glyph unicode="5" horiz-adv-x="1187" d="M102 338h201q0 -50 81 -111t194 -61q129 0 223 87t94 224q6 135 -73.5 229.5t-205.5 94.5q-243 0 -354 -158l-82 43l164 748h694v-172h-534l-82 -340q2 2 6.5 6t22 14.5t40 18t63.5 14t89 6.5q58 0 118 -15.5t122 -53.5t109.5 -94t76.5 -144.5t27 -196.5 q0 -108 -42.5 -201.5t-114 -156t-165 -98t-196.5 -35.5q-92 0 -173.5 28t-135 69.5t-92.5 91t-57 92t-18 71.5z" />
<glyph unicode="6" horiz-adv-x="1155" d="M102 418q0 -122 61 -225t166 -162.5t228 -59.5t228 59.5t166 162.5t61 225t-70 229t-185 161t-235 26l430 600h-213l-567 -772q-70 -104 -70 -244zM293 418q0 110 77 188t187 78t187 -76.5t77 -189.5t-77 -189.5t-187 -76.5t-187 76.5t-77 189.5z" />
<glyph unicode="7" horiz-adv-x="1171" d="M143 1245v189h1028l-688 -1434h-225l602 1245h-717z" />
<glyph unicode="8" horiz-adv-x="1153" d="M102 424q0 -122 64 -224.5t173 -161t236 -58.5q128 0 237.5 58.5t174 161t64.5 224.5q0 75 -19.5 139t-47.5 102t-56.5 65t-47.5 38l-20 10q5 4 14 12t31.5 35.5t40 58t31.5 79t14 100.5q0 164 -122 277.5t-294 113.5q-171 0 -293 -114t-122 -277q0 -55 13.5 -104t33 -81 t38.5 -55.5t33 -34.5l13 -10q-8 -4 -20.5 -11t-45 -36.5t-57.5 -66t-45.5 -101t-20.5 -139.5zM297 424q0 110 80.5 184t197.5 74q118 0 198.5 -74t80.5 -184q0 -109 -81 -184.5t-198 -75.5t-197.5 75.5t-80.5 184.5zM356 1063q0 88 63.5 147.5t155.5 59.5q94 0 158 -59.5 t64 -147.5q0 -87 -64 -146t-158 -59q-93 0 -156 59t-63 146z" />
<glyph unicode="9" horiz-adv-x="1167" d="M143 1016q0 -122 70 -229t185 -161t235 -26l-430 -600h213l567 772q70 104 70 244q0 185 -133.5 315.5t-321.5 130.5t-321.5 -130.5t-133.5 -315.5zM334 1016q0 113 77 189.5t187 76.5t187 -76.5t77 -189.5q0 -110 -77 -188t-187 -78t-187 76.5t-77 189.5z" />
<glyph unicode=":" horiz-adv-x="487" d="M164 207q0 -46 35.5 -80.5t85.5 -34.5t85.5 34.5t35.5 80.5t-35.5 80.5t-85.5 34.5t-85.5 -34.5t-35.5 -80.5zM164 840q0 -46 35.5 -80.5t85.5 -34.5t85.5 34.5t35.5 80.5t-35.5 80t-85.5 34t-85.5 -34t-35.5 -80z" />
<glyph unicode=";" horiz-adv-x="534" d="M158 -274l94 497h205l-146 -497h-153zM236 840q0 -46 35 -80.5t85 -34.5t85.5 34.5t35.5 80.5t-35.5 80t-85.5 34t-85 -34t-35 -80z" />
<glyph unicode="&#x3c;" horiz-adv-x="1185" d="M143 528v154l899 432v-211l-665 -299l665 -297v-215z" />
<glyph unicode="=" d="M156 262v174h917v-174h-917zM156 696v174h917v-174h-917z" />
<glyph unicode="&#x3e;" horiz-adv-x="1185" d="M143 92v215l666 297l-666 299v211l899 -432v-154z" />
<glyph unicode="?" horiz-adv-x="976" d="M94 1059q0 178 115.5 290t282.5 109q175 -6 283 -106.5t108 -268.5q0 -80 -42 -150t-101.5 -120t-119 -96t-101.5 -97t-42 -104v-110h-203v155q0 55 22.5 102t58 81t78.5 65t86 59t78.5 57t58 66.5t22.5 79.5q0 98 -45.5 156t-140.5 61q-96 0 -145.5 -58t-49.5 -171h-203 zM248 123q0 -56 40.5 -94.5t98.5 -38.5q57 0 98 39t41 94q0 54 -41 92.5t-98 38.5q-58 0 -98.5 -38.5t-40.5 -92.5z" />
<glyph unicode="@" horiz-adv-x="1716" d="M72 563q0 -213 111 -395.5t299 -288.5t405 -104v174h-15q-174 0 -314.5 78.5t-220 219.5t-79.5 318q0 134 47.5 252t129 202.5t196 133.5t243.5 49q272 0 433 -155.5t161 -417.5q0 -170 -103 -262q-56 -49 -106 -50q-27 1 -28 19v620h-170v-88q-43 43 -113 75t-121 32 q-110 0 -206 -56.5t-152.5 -152.5t-56.5 -207q0 -167 123 -289.5t292 -122.5q75 0 144.5 37t99.5 97q0 -50 50.5 -92t144.5 -42q53 0 118 37.5t123.5 99t98 153.5t39.5 190q0 211 -99 381t-274.5 266t-392.5 96q-212 0 -398.5 -111t-297.5 -297.5t-111 -398.5zM600 555 q0 103 67 177.5t160 74.5q94 0 161 -74t67 -178q0 -103 -66.5 -174.5t-161.5 -71.5q-94 0 -160.5 72.5t-66.5 173.5z" />
<glyph unicode="A" horiz-adv-x="1265" d="M41 0h215l147 395h502l146 -395h215l-578 1470h-70zM473 578l180 462l178 -462h-358z" />
<glyph unicode="B" horiz-adv-x="1083" d="M123 0v1434h309q216 0 344.5 -98t128.5 -271q0 -48 -11.5 -89t-29.5 -68.5t-40 -50t-43.5 -35.5t-39.5 -21.5t-29 -11.5l-12 -3q130 -20 215.5 -124t85.5 -234q0 -137 -78 -235.5t-207 -145.5t-294 -47h-299zM315 844h117q83 0 137 14.5t81.5 44.5t37.5 65.5t10 86.5 q0 91 -69 137.5t-197 46.5h-117v-395zM322 201h137q174 0 255 66t81 171q0 252 -357 252h-116v-489z" />
<glyph unicode="C" horiz-adv-x="1472" d="M61 719q0 -150 58.5 -287t157 -236t235.5 -157.5t287 -58.5q221 0 395 117.5t231 305.5h-245q-40 -106 -151 -169.5t-234 -63.5q-92 0 -182 39t-162.5 108t-117 173.5t-44.5 224.5q0 119 44.5 223t117 173.5t162.5 109t182 39.5q79 0 156 -28t139 -82.5t90 -125.5h252 q-57 192 -233 312t-400 120q-150 0 -287 -58t-235.5 -156.5t-157 -235t-58.5 -287.5z" />
<glyph unicode="D" horiz-adv-x="1296" d="M106 0h398q194 1 357.5 97.5t258 261t94.5 358.5q0 146 -56 278.5t-150.5 228.5t-226 152.5t-277.5 57.5h-398v-1434zM330 190v1053h174q89 -1 176.5 -40t156.5 -106.5t111.5 -168t42.5 -213.5q0 -117 -42.5 -217t-112 -166t-156 -103.5t-176.5 -38.5h-174z" />
<glyph unicode="E" horiz-adv-x="1171" d="M184 0h826v195h-621v503h580v181h-580v360h621v195h-826v-1434z" />
<glyph unicode="F" horiz-adv-x="1058" d="M184 0h205v698h526v181h-526v360h567v195h-772v-1434z" />
<glyph unicode="G" horiz-adv-x="1447" d="M0 719q0 148 57.5 283t155.5 233t233 155.5t283 57.5q150 0 284 -56.5t234 -158.5l-151 -160q-74 83 -173 128.5t-200 45.5q-90 0 -178.5 -38t-160.5 -105t-116.5 -170t-44.5 -221t44.5 -221t116.5 -170.5t160.5 -106.5t178.5 -39q183 0 302 92.5t155 276.5h-461v186h688 v-12q0 -339 -175.5 -534t-502.5 -195q-148 0 -283 57.5t-233 155.5t-155.5 233t-57.5 283z" />
<glyph unicode="H" horiz-adv-x="1269" d="M90 0v1434h213v-621h610v621h213v-1432l-213 -2v612h-610v-610z" />
<glyph unicode="I" horiz-adv-x="616" d="M229 0v1434h215v-1434h-215z" />
<glyph unicode="J" horiz-adv-x="958" d="M82 113l137 129q67 -70 156 -70q87 0 150 63t63 150v1049h205v-1049h2q0 -163 -122.5 -282t-287.5 -119q-184 0 -303 129z" />
<glyph unicode="K" horiz-adv-x="1239" d="M104 0h215v637h89l546 -637h285l-631 743l525 691h-271l-454 -605h-89v605h-215v-1434z" />
<glyph unicode="L" horiz-adv-x="1105" d="M231 0v1434h215v-1237h592v-197h-807z" />
<glyph unicode="M" horiz-adv-x="1652" d="M94 0l178 1466h66l496 -1108l499 1108h66l178 -1466h-195l-120 803l-394 -834h-65l-393 838l-121 -807h-195z" />
<glyph unicode="N" horiz-adv-x="1484" d="M143 0h213v983l918 -1016h67v1467h-211v-990l-919 1018h-68v-1462z" />
<glyph unicode="O" horiz-adv-x="1579" d="M61 719q0 -150 58.5 -287t157 -236t235.5 -157.5t287 -58.5t287 58.5t236 157.5t157.5 236t58.5 287q0 151 -58.5 287.5t-157.5 235t-236 156.5t-287 58t-287 -58t-235.5 -156.5t-157 -235t-58.5 -287.5zM289 715q0 119 44.5 223t117 173.5t162.5 109t182 39.5 q74 0 147.5 -25t138 -73t114.5 -113t79 -151.5t29 -182.5q0 -97 -29 -184t-79 -152t-114.5 -112.5t-138 -72t-147.5 -24.5q-92 0 -182 39t-162.5 108t-117 173.5t-44.5 224.5z" />
<glyph unicode="P" horiz-adv-x="993" d="M137 0v1434h285q252 0 391 -118t139 -306t-139 -307t-391 -119h-86v-584h-199zM336 772h86q81 0 141.5 14.5t95 36.5t55.5 54t27.5 62t6.5 67t-6.5 67t-27.5 63t-55.5 55.5t-95 37t-141.5 14.5h-86v-471z" />
<glyph unicode="Q" horiz-adv-x="1587" d="M41 717q0 199 98.5 368t267.5 267t367 98q200 0 368.5 -98t266.5 -266.5t98 -368.5q0 -139 -50 -266.5t-140 -227.5l229 -239h-256l-114 118q-182 -118 -402 -118q-148 0 -284 58.5t-234 156.5t-156.5 234t-58.5 284zM264 711q0 -94 29 -180t79 -150.5t114 -113t137 -73 t145 -24.5q138 0 262 82l-262 272h262l135 -141q107 143 107 328q0 119 -44.5 222.5t-116 172t-161.5 107t-182 38.5q-91 0 -181 -38.5t-162 -107t-116.5 -172t-44.5 -222.5z" />
<glyph unicode="R" horiz-adv-x="1128" d="M137 0v1434h264q252 0 391.5 -118t139.5 -306q0 -161 -74 -253t-229 -143l520 -614h-248l-493 582h-72v-582h-199zM336 772h65q81 0 141.5 14.5t95 36.5t55.5 54t27.5 62t6.5 67t-6.5 67t-27.5 63t-55.5 55.5t-95 37t-141.5 14.5h-65v-471z" />
<glyph unicode="S" horiz-adv-x="1251" d="M143 430h238q0 -36 22.5 -80.5t59.5 -83.5t92.5 -65.5t114.5 -26.5q71 0 130 23t94 59t54 76.5t19 77.5q0 92 -59.5 150t-155.5 81q-9 2 -61.5 14.5t-123.5 30.5q-143 31 -245.5 135.5t-102.5 245.5q0 170 123 284.5t309 114.5q113 0 213 -47.5t160.5 -128t60.5 -172.5 h-225q0 68 -59.5 113t-149.5 45t-152.5 -66t-62.5 -139q0 -53 38.5 -104.5t98.5 -65.5l179 -47q438 -93 438 -430q0 -195 -143 -324t-357 -129q-147 0 -272.5 60t-200 166t-74.5 233z" />
<glyph unicode="T" horiz-adv-x="1030" d="M102 1247v187h928v-187h-356v-1247h-213v1247h-359z" />
<glyph unicode="U" d="M90 549v887h215v-887q0 -98 24 -170t67.5 -112.5t97 -59.5t118.5 -19q67 0 121.5 19t99 59.5t69 112.5t24.5 170v887h213v-887q0 -126 -42.5 -233.5t-114.5 -179.5t-166.5 -112t-199.5 -40t-200.5 40t-168 112t-115 179.5t-42.5 233.5z" />
<glyph unicode="V" horiz-adv-x="1282" d="M20 1434h230l391 -1006l389 1006h232l-596 -1465h-58z" />
<glyph unicode="W" horiz-adv-x="1742" d="M4 1434h219l344 -961l330 983h57l312 -983l356 961h219l-553 -1465h-59l-303 893l-330 -893h-57z" />
<glyph unicode="X" horiz-adv-x="1392" d="M0 0l571 737l-540 697h250l415 -537l416 537h250l-541 -697l572 -737h-250l-447 575l-446 -575h-250z" />
<glyph unicode="Y" horiz-adv-x="1206" d="M82 1434h225l344 -607l350 607h226l-473 -799v-635h-209v635z" />
<glyph unicode="Z" d="M104 0v57l703 1182h-645v195h964v-62l-698 -1177h705v-195h-1029z" />
<glyph unicode="[" horiz-adv-x="612" d="M143 -246v1766h387v-164h-196v-1432h196v-170h-387z" />
<glyph unicode="\" horiz-adv-x="821" d="M82 1446h190l467 -1743h-190z" />
<glyph unicode="]" horiz-adv-x="612" d="M82 -76h197v1432h-197v164h387v-1766h-387v170z" />
<glyph unicode="^" horiz-adv-x="921" d="M143 823l269 559h96l270 -559h-133l-184 414l-187 -414h-131z" />
<glyph unicode="_" horiz-adv-x="1163" d="M143 -104h811v-127h-811v127z" />
<glyph unicode="a" horiz-adv-x="1273" d="M96 508q0 -106 42 -203.5t113 -168t169.5 -112.5t206.5 -42q63 0 120 14.5t93 35t63 41.5t39 35l12 15v-123h199v1024h-199v-129q-4 6 -12.5 15.5t-38 33.5t-64 43t-92 34t-120.5 15q-144 0 -266.5 -70t-193.5 -191.5t-71 -266.5zM311 504q0 143 93.5 245.5t226.5 102.5 t226 -102.5t93 -245.5q0 -142 -93 -243t-226 -101t-226.5 101t-93.5 243z" />
<glyph unicode="b" horiz-adv-x="1331" d="M190 0h197v119q5 -6 14.5 -15t42 -32.5t68 -41.5t91 -33t112.5 -15q144 0 265.5 70.5t192 192t70.5 263.5q0 144 -70.5 265.5t-192 192t-265.5 70.5q-57 0 -112 -13.5t-92.5 -33t-66.5 -38.5t-43 -33l-14 -13v672l-197 -61v-1516zM395 504q0 144 93 245t223 101 q132 0 225.5 -101t93.5 -245q0 -140 -94 -242t-225 -102q-129 0 -222.5 102t-93.5 242z" />
<glyph unicode="c" horiz-adv-x="1187" d="M117 514q0 144 71.5 265.5t193.5 192t265 70.5q159 0 282.5 -88.5t180.5 -232.5h-229q-39 64 -100.5 99.5t-135.5 35.5q-133 0 -226 -101t-93 -243q0 -145 93 -245.5t226 -100.5q78 0 141.5 39.5t102.5 107.5h223q-55 -148 -179 -237.5t-286 -89.5q-143 0 -265 71 t-193.5 192.5t-71.5 264.5z" />
<glyph unicode="d" horiz-adv-x="1351" d="M135 508q0 -106 42 -203.5t113 -168t169.5 -112.5t206.5 -42q69 0 128 14t94 34t60 40.5t35 34.5l10 14v-119h199v1577l-199 -61v-605q-3 5 -10 13.5t-34.5 30t-61 38t-93 30t-128.5 13.5q-144 0 -266.5 -70t-193.5 -191.5t-71 -266.5zM350 504q0 143 93.5 245.5 t226.5 102.5q131 0 223 -102.5t92 -245.5q0 -142 -92 -243t-223 -101q-133 0 -226.5 101t-93.5 243z" />
<glyph unicode="e" horiz-adv-x="1249" d="M115 510q0 -144 69 -265.5t189.5 -193t265.5 -71.5q150 0 271.5 77t185.5 207h-242q-85 -102 -219 -102q-113 0 -197 76t-108 194h819q6 38 6 78q0 145 -67.5 267t-186 193.5t-262.5 71.5q-145 0 -265.5 -71.5t-189.5 -193.5t-69 -267zM334 598q27 112 109.5 184 t191.5 72q108 0 189 -72t106 -184h-596z" />
<glyph unicode="f" horiz-adv-x="839" d="M123 836v188h182v227q0 155 108.5 265t262.5 110q83 0 164 -35l-86 -176q-33 23 -78 23q-70 0 -119 -53t-49 -132v-229h237v-188h-237v-836h-203v836h-182z" />
<glyph unicode="g" horiz-adv-x="1269" d="M100 516q0 108 42 206.5t112.5 169.5t168.5 113t206 42q58 0 112.5 -14.5t91 -35.5t65 -42t41.5 -35l13 -15v119h203v-1008q0 -102 -41.5 -195.5t-112 -162t-168 -109.5t-204.5 -41q-124 0 -231.5 51t-182.5 140l178 113q58 -56 110 -86.5t122 -30.5q77 0 138 26t99.5 72 t60.5 101.5t29 121.5v119q-5 -6 -14 -15.5t-40 -34.5t-66 -44.5t-90 -35t-113 -15.5q-144 0 -266 70.5t-192.5 191.5t-70.5 264zM317 520q0 -143 92 -243.5t222 -100.5t222.5 100.5t92.5 243.5q0 141 -92.5 241.5t-222.5 100.5t-222 -100.5t-92 -241.5z" />
<glyph unicode="h" horiz-adv-x="1167" d="M135 0v1516l207 61v-647q83 114 285 114q60 0 116.5 -12.5t114 -45.5t100 -83.5t69 -132.5t26.5 -186v-584h-203v584q0 67 -23 118.5t-58.5 79t-71.5 41t-70 13.5q-58 0 -107 -14.5t-90 -45.5t-64.5 -85.5t-23.5 -127.5v-563h-207z" />
<glyph unicode="i" horiz-adv-x="583" d="M152 1434q0 -56 40.5 -95t98.5 -39q57 0 98 39.5t41 94.5q0 54 -41 92.5t-98 38.5q-58 0 -98.5 -38.5t-40.5 -92.5zM193 0h202v1022h-202v-1022z" />
<glyph unicode="j" horiz-adv-x="512" d="M-102 -455l69 172q33 -20 74 -20q65 0 109.5 45t44.5 115v1167h200v-1167q-2 -145 -102.5 -247t-251.5 -102q-67 0 -143 37zM152 1434q0 54 40.5 92.5t98.5 38.5q57 0 98 -38.5t41 -92.5q0 -55 -41 -94.5t-98 -39.5q-58 0 -98.5 39t-40.5 95z" />
<glyph unicode="k" horiz-adv-x="1110" d="M168 0h203v500h90l373 -500h256l-445 596l430 442h-260l-354 -358h-90v897l-203 -61v-1516z" />
<glyph unicode="l" horiz-adv-x="598" d="M164 295v1221l205 61v-1282q0 -67 35 -95t104 -28v-205q-171 0 -257.5 79t-86.5 249z" />
<glyph unicode="m" horiz-adv-x="1863" d="M160 0v1024h202v-94q83 114 285 114q104 0 198 -40t154 -130q32 77 126 123.5t233 46.5q60 0 116.5 -12.5t114 -45.5t100 -83.5t69 -132.5t26.5 -186v-584h-203v584q0 67 -23 118.5t-58.5 79t-71.5 41t-70 13.5q-58 0 -107 -14.5t-90 -45.5t-64.5 -85.5t-23.5 -127.5 v-563h-203v584q0 67 -23 118.5t-58.5 79t-71.5 41t-70 13.5q-58 0 -107 -14.5t-90 -45.5t-64.5 -85.5t-23.5 -127.5v-563h-202z" />
<glyph unicode="n" horiz-adv-x="1167" d="M160 0v1024h202v-94q83 114 285 114q60 0 116.5 -12.5t114 -45.5t100 -83.5t69 -132.5t26.5 -186v-584h-203v584q0 67 -23 118.5t-58.5 79t-71.5 41t-70 13.5q-58 0 -107 -14.5t-90 -45.5t-64.5 -85.5t-23.5 -127.5v-563h-202z" />
<glyph unicode="o" horiz-adv-x="1249" d="M109 514q0 -143 70.5 -264t191.5 -191.5t264 -70.5t263.5 70.5t190.5 191.5t70 264t-70 263.5t-190.5 190.5t-263.5 70t-264 -70t-191.5 -190.5t-70.5 -263.5zM315 510q0 142 92.5 243t223.5 101q130 0 222.5 -101.5t92.5 -242.5q0 -143 -92.5 -243.5t-222.5 -100.5 q-132 0 -224 100.5t-92 243.5z" />
<glyph unicode="p" horiz-adv-x="1267" d="M150 -430v1454h192v-119q5 5 14.5 14t41.5 32t67.5 40.5t91 32t113.5 14.5q143 0 264 -70.5t191.5 -191.5t70.5 -264t-70.5 -264t-191.5 -191.5t-264 -70.5q-58 0 -113 14t-92.5 33.5t-66.5 39.5t-42 34l-14 14v-613zM350 516q0 -133 94 -236.5t222 -103.5 q130 0 223.5 103.5t93.5 236.5t-93.5 236.5t-223.5 103.5q-128 0 -222 -103.5t-94 -236.5z" />
<glyph unicode="q" horiz-adv-x="1269" d="M82 514q0 -143 70 -264t191 -191.5t263 -70.5q58 0 113 14t92 33.5t65.5 39.5t41.5 34l14 14v-615l196 62v1454h-196v-119l-14 14t-41 32t-67 40.5t-90.5 32t-113.5 14.5q-106 0 -203.5 -41.5t-167.5 -111.5t-111.5 -167.5t-41.5 -203.5zM297 516q0 143 91 243.5 t222 100.5t224.5 -101t93.5 -243q0 -140 -94 -240t-224 -100q-131 0 -222 100t-91 240z" />
<glyph unicode="r" horiz-adv-x="894" d="M160 0v1024h202v-94q83 114 285 114q43 0 86 -6v-213q-43 11 -86 11q-58 0 -107 -14.5t-90 -45.5t-64.5 -85.5t-23.5 -127.5v-563h-202z" />
<glyph unicode="s" horiz-adv-x="964" d="M90 307h213q0 -57 55 -102t138 -45t130.5 41.5t47.5 99.5q0 48 -33 90t-94 55l-137 33q-119 32 -189.5 105t-70.5 176q0 125 86.5 206t232.5 81q151 0 240.5 -69.5t105.5 -180.5h-205q0 35 -42 57.5t-99 22.5q-63 0 -95 -32.5t-32 -82.5q0 -86 68 -107q53 -16 137 -34 q145 -29 236 -111.5t91 -206.5q0 -139 -109 -230t-269 -91q-105 0 -198 41.5t-150.5 117t-57.5 166.5z" />
<glyph unicode="t" horiz-adv-x="825" d="M123 836v188h182v385l201 61v-446h237v-188h-237v-541q0 -67 35.5 -94t103.5 -27v-205q-171 0 -255.5 78t-84.5 248v541h-182z" />
<glyph unicode="u" horiz-adv-x="1118" d="M102 461v583h203v-583q0 -67 23 -118.5t58.5 -79t71.5 -41t70 -13.5q58 0 107 14.5t90 45t64.5 85t23.5 127.5v563h203v-1024h-203v95q-84 -115 -285 -115q-60 0 -116.5 12.5t-114 45.5t-100 83.5t-69 133t-26.5 186.5z" />
<glyph unicode="v" horiz-adv-x="1105" d="M41 1024h211l295 -635l299 635h211l-484 -1042h-51z" />
<glyph unicode="w" horiz-adv-x="1658" d="M20 1024h211l297 -637l283 637h41l278 -635l297 635h211l-481 -1044h-49l-277 610l-278 -610h-49z" />
<glyph unicode="x" horiz-adv-x="1118" d="M20 0l414 539l-373 485h244l256 -330l252 330h244l-377 -485l418 -539h-242l-297 379l-297 -379h-242z" />
<glyph unicode="y" horiz-adv-x="1050" d="M20 1028h228l330 -588l272 588h221l-704 -1520h-222l330 711z" />
<glyph unicode="z" horiz-adv-x="1146" d="M90 0v41l111 145l489 650h-538v188h905v-43l-25 -31l-571 -762h600v-186h-742v-2h-229z" />
<glyph unicode="{" horiz-adv-x="751" d="M143 522v152h78q18 0 30.5 11.5t22.5 41.5q4 10 7 48.5t4 87t1.5 108t0 105t-1 85t-0.5 41.5q0 105 60 166.5t177 61.5h148v-152h-138q-24 0 -43.5 -21.5t-19.5 -54.5v-416q0 -37 -10.5 -70t-26 -53.5t-31 -35t-25.5 -21.5l-11 -6q4 -2 11 -6t25 -20t32 -36t25 -54.5 t11 -73.5v-416q0 -33 19.5 -53.5t43.5 -20.5h138v-153h-148q-116 0 -176.5 61.5t-60.5 165.5q0 2 0.5 41.5t1 85t0 105t-1.5 108t-4 87t-7 48.5q-10 31 -22 42t-31 11h-78z" />
<glyph unicode="|" horiz-adv-x="559" d="M184 -307v1884h191v-1884h-191z" />
<glyph unicode="}" horiz-adv-x="751" d="M82 -80h137q24 0 44 20.5t20 53.5v416q0 39 10.5 73.5t26 55t31 35t25.5 20.5l11 6q-4 2 -11 6.5t-25 21t-32 36t-25 52.5t-11 70v416q0 33 -20 54.5t-44 21.5h-137v152h147q117 0 177.5 -61.5t60.5 -166.5l-1 -54q0 -54 -0.5 -114t0 -127.5t3.5 -117.5t8 -62 q10 -30 22.5 -41.5t30.5 -11.5h78v-152h-78q-19 0 -31 -11t-22 -42q-5 -12 -8 -62t-3.5 -117.5t0 -127.5t0.5 -114l1 -54q0 -103 -61 -165t-177 -62h-147v153z" />
<glyph unicode="~" d="M115 426h133q0 78 30.5 111.5t90.5 33.5q39 0 139.5 -48t205 -96t154.5 -48q119 0 180.5 90.5t61.5 255.5h-133q0 -79 -24 -112t-83 -33q-41 0 -147 47t-214 94t-155 47q-239 0 -239 -342z" />
<glyph unicode="&#xa1;" horiz-adv-x="483" d="M104 991q0 -54 41.5 -92.5t98.5 -38.5q58 0 98.5 38.5t40.5 92.5q0 56 -40.5 94.5t-98.5 38.5q-57 0 -98.5 -39t-41.5 -94zM143 -315l13 1024h176l8 -1024h-197z" />
<glyph unicode="&#xa2;" d="M106 721q0 198 134.5 351t328.5 181v191h156v-191q135 -21 239 -109.5t156 -219.5h-246q-37 62 -97 97.5t-132 35.5q-131 0 -222 -99.5t-91 -238.5q0 -142 91 -241t222 -99q76 0 138 39t100 106h239q-48 -130 -154 -221.5t-243 -114.5v-188h-156v188q-193 29 -328 182.5 t-135 350.5z" />
<glyph unicode="&#xa3;" d="M94 0v184h144v400h-140v164h140v251q0 128 57.5 235.5t161 170.5t229.5 63q125 0 227.5 -62t160 -167t59.5 -231h-195q-3 114 -72.5 192t-179.5 78q-105 0 -176.5 -82t-71.5 -197v-251h320v-164h-320v-400h719v-184h-1063z" />
<glyph unicode="&#xa5;" horiz-adv-x="1206" d="M82 1434h225l344 -607l350 607h226l-428 -723h172v-133h-217v-175h217v-133h-217v-270h-209v270h-221v133h221v175h-221v133h178z" />
<glyph unicode="&#xa6;" horiz-adv-x="559" d="M184 -307v766h191v-766h-191zM184 815v762h191v-762h-191z" />
<glyph unicode="&#xa7;" horiz-adv-x="1011" d="M143 678q0 90 53.5 151.5t149.5 88.5q-95 38 -149 105t-54 157q0 124 87 205t233 81q151 0 240.5 -69t105.5 -180h-205q0 35 -42 57t-99 22q-63 0 -95 -32t-32 -82q0 -41 14 -68t53 -39q61 -19 138 -35q146 -29 236.5 -111t90.5 -206q0 -91 -53 -152t-149 -88 q95 -38 148.5 -105t53.5 -157q0 -125 -86.5 -206t-232.5 -81q-151 0 -240.5 69.5t-105.5 180.5h205q0 -35 42 -57.5t99 -22.5q63 0 95 32.5t32 82.5q0 86 -68 107q-53 16 -137 34q-146 29 -237 111.5t-91 206.5zM344 700q0 -51 34 -102t93 -63q96 -14 146.5 35t50.5 130 q0 51 -34 102.5t-93 63.5q-197 25 -197 -166z" />
<glyph unicode="&#xa9;" horiz-adv-x="1550" d="M0 639q0 158 61 301t165 247t247 165t301 61t302 -61t247.5 -165t165 -247t61.5 -301t-61 -302t-165 -248t-248 -165t-302 -61t-301 61.5t-247 165t-165 247.5t-61 302zM143 641q0 -134 47.5 -250.5t130 -199t199 -130t250.5 -47.5t250.5 47.5t199 130t130 199 t47.5 250.5t-47.5 250.5t-130 199t-199 130t-250.5 47.5t-250.5 -47.5t-199 -130t-130 -199t-47.5 -250.5zM371 627q0 173 122 294t293 121q126 0 223.5 -69t141.5 -182h-180q-66 106 -185 106q-105 0 -178 -79.5t-73 -190.5q0 -114 72.5 -193.5t178.5 -79.5q60 0 109.5 31 t81.5 84h176q-44 -115 -141.5 -185.5t-225.5 -70.5q-170 0 -292.5 122t-122.5 292z" />
<glyph unicode="&#xad;" horiz-adv-x="942" d="M143 498v164h656v-164h-656z" />
<glyph unicode="&#xae;" horiz-adv-x="1714" d="M82 639q0 158 61 301t165 247t247 165t301 61t302 -61t247.5 -165t165 -247t61.5 -301t-61 -302t-165 -248t-248 -165t-302 -61t-301 61.5t-247 165t-165 247.5t-61 302zM225 641q0 -134 47.5 -250.5t130 -199t199 -130t250.5 -47.5t250.5 47.5t199 130t130 199 t47.5 250.5t-47.5 250.5t-130 199t-199 130t-250.5 47.5t-250.5 -47.5t-199 -130t-130 -199t-47.5 -250.5zM608 219v873h160q154 0 239 -72t85 -186q0 -98 -45.5 -154t-139.5 -86l316 -375h-150l-301 354h-43v-354h-121zM729 690h39q61 0 103 12t61.5 34t27 44.5t7.5 50.5 t-7.5 51t-27 45.5t-61.5 35t-103 12.5h-39v-285z" />
<glyph unicode="&#xb0;" horiz-adv-x="911" d="M143 1106q0 129 91.5 220t220.5 91q130 0 221.5 -91t91.5 -220q0 -130 -91 -221.5t-222 -91.5q-129 0 -220.5 91.5t-91.5 221.5zM287 1100q0 -69 47.5 -116.5t116.5 -47.5q68 0 115.5 47.5t47.5 116.5q0 68 -48 116t-115 48q-69 0 -116.5 -48t-47.5 -116z" />
<glyph unicode="&#xb6;" d="M137 1067q0 166 122.5 272.5t342.5 106.5h164v-1665h-164v909q-220 0 -342.5 105.5t-122.5 271.5zM899 -219v1665h164v-1665h-164z" />
<glyph unicode="&#xb7;" d="M475 606q0 -56 40.5 -94.5t98.5 -38.5q57 0 98.5 39t41.5 94q0 54 -41.5 92.5t-98.5 38.5q-58 0 -98.5 -38.5t-40.5 -92.5z" />
<glyph unicode="&#xbf;" horiz-adv-x="976" d="M94 33q0 80 42 150t101.5 120t119 96t101.5 97t42 104v111h202v-156q0 -55 -22 -102t-58 -81t-79 -65t-85.5 -59t-78.5 -57t-58 -66.5t-22 -79.5q0 -98 45.5 -156t140.5 -61q96 0 145.5 58t49.5 171h203q0 -178 -115.5 -290t-282.5 -109q-175 6 -283 106.5t-108 268.5z M451 993q0 -54 41 -92.5t98 -38.5q58 0 98.5 38.5t40.5 92.5q0 56 -40.5 94.5t-98.5 38.5q-57 0 -98 -39t-41 -94z" />
<glyph unicode="&#xc0;" horiz-adv-x="1265" d="M41 0h215l147 395h502l146 -395h215l-578 1470h-70zM305 1933h215l197 -295h-164zM473 578l180 462l178 -462h-358z" />
<glyph unicode="&#xc1;" horiz-adv-x="1265" d="M41 0h215l147 395h502l146 -395h215l-578 1470h-70zM473 578l180 462l178 -462h-358zM590 1638l196 295h215l-247 -295h-164z" />
<glyph unicode="&#xc2;" horiz-adv-x="1265" d="M41 0l577 1470h70l578 -1470h-215l-146 395h-502l-147 -395h-215zM350 1638l197 295h215l196 -295h-163l-140 168l-141 -168h-164zM473 578h358l-178 462z" />
<glyph unicode="&#xc3;" horiz-adv-x="1265" d="M41 0h215l147 395h502l146 -395h215l-578 1470h-70zM297 1638h123q0 62 20 87.5t58 25.5q24 0 84 -30.5t127 -61.5t108 -31q90 0 141.5 70.5t51.5 189.5h-123q0 -63 -16 -86.5t-54 -23.5q-28 0 -154 59t-174 59q-92 0 -142 -69.5t-50 -188.5zM473 578l180 462l178 -462 h-358z" />
<glyph unicode="&#xc4;" horiz-adv-x="1265" d="M41 0h215l147 395h502l146 -395h215l-578 1470h-70zM332 1753q0 -48 36 -81.5t89 -33.5q48 0 83 34t35 81q0 46 -35.5 80.5t-82.5 34.5q-53 0 -89 -34t-36 -81zM473 578l180 462l178 -462h-358zM731 1753q0 -48 35 -81.5t88 -33.5q48 0 83.5 34t35.5 81q0 46 -36 80.5 t-83 34.5q-53 0 -88 -34t-35 -81z" />
<glyph unicode="&#xc5;" horiz-adv-x="1265" d="M41 0h215l147 395h502l146 -395h215l-578 1470h-70zM465 1829q0 77 55 132.5t133 55.5t134.5 -55.5t56.5 -132.5q0 -79 -56.5 -135t-134.5 -56t-133 56t-55 135zM473 578l180 462l178 -462h-358zM561 1829q0 -38 28 -66t66 -28q37 0 65 28t28 66q0 37 -28 64.5t-65 27.5 q-38 0 -66 -27.5t-28 -64.5z" />
<glyph unicode="&#xc6;" horiz-adv-x="1945" d="M143 2l686 1432h973v-195h-620v-360h579v-181h-579v-503h620v-195h-825v395h-418l-188 -393h-228zM645 578h332v659h-21z" />
<glyph unicode="&#xc7;" horiz-adv-x="1472" d="M61 719q0 151 58.5 287.5t157 235t235.5 156.5t287 58q224 0 400 -120t233 -312h-252q-28 71 -90 125.5t-139 82.5t-156 28q-92 0 -182 -39.5t-162.5 -109t-117 -173.5t-44.5 -223q0 -120 44.5 -224.5t117 -173.5t162.5 -108t182 -39q123 0 234 63.5t151 169.5h245 q-55 -180 -219 -296t-375 -127l-18 -66h35q29 0 58.5 -11t57.5 -33t45.5 -63t16.5 -94q0 -83 -61 -136.5t-144 -53.5q-45 0 -83 16t-60 39t-33.5 45.5t-11.5 38.5l115 19q0 -14 21 -31t52 -17q35 0 59.5 22.5t24.5 59.5q2 35 -22 61.5t-58 26.5q-58 0 -88 -43l-71 37l53 187 q-137 15 -259 79t-209.5 161t-138.5 226t-51 269z" />
<glyph unicode="&#xc8;" horiz-adv-x="1171" d="M184 0h826v195h-621v503h580v181h-580v360h621v195h-826v-1434zM285 1933h215l196 -295h-164z" />
<glyph unicode="&#xc9;" horiz-adv-x="1171" d="M184 0h826v195h-621v503h580v181h-580v360h621v195h-826v-1434zM520 1638l197 295h215l-248 -295h-164z" />
<glyph unicode="&#xca;" horiz-adv-x="1171" d="M184 0v1434h826v-195h-621v-360h580v-181h-580v-503h621v-195h-826zM287 1638l196 295h215l197 -295h-164l-139 168l-141 -168h-164z" />
<glyph unicode="&#xcb;" horiz-adv-x="1171" d="M184 0h826v195h-621v503h580v181h-580v360h621v195h-826v-1434zM272 1753q0 -48 36 -81.5t89 -33.5q48 0 83.5 34t35.5 81q0 46 -36 80.5t-83 34.5q-53 0 -89 -34t-36 -81zM672 1753q0 -48 35 -81.5t88 -33.5q48 0 83 34t35 81q0 46 -35.5 80.5t-82.5 34.5q-53 0 -88 -34 t-35 -81z" />
<glyph unicode="&#xcc;" horiz-adv-x="616" d="M-4 1933h215l197 -295h-164zM229 0v1434h215v-1434h-215z" />
<glyph unicode="&#xcd;" horiz-adv-x="616" d="M229 0v1434h215v-1434h-215zM262 1638l197 295h215l-248 -295h-164z" />
<glyph unicode="&#xce;" horiz-adv-x="616" d="M4 1638l197 295h215l196 -295h-163l-140 168l-141 -168h-164zM229 0v1434h215v-1434h-215z" />
<glyph unicode="&#xcf;" horiz-adv-x="616" d="M14 1753q0 -48 36 -81.5t89 -33.5q48 0 83.5 34t35.5 81q0 46 -36 80.5t-83 34.5q-53 0 -89 -34t-36 -81zM229 0v1434h215v-1434h-215zM414 1753q0 -48 35 -81.5t88 -33.5q48 0 83 34t35 81q0 46 -35.5 80.5t-82.5 34.5q-53 0 -88 -34t-35 -81z" />
<glyph unicode="&#xd0;" horiz-adv-x="1337" d="M41 633v164h106v637h398q146 -1 277.5 -57.5t226 -152.5t150.5 -228.5t56 -278.5q0 -194 -94.5 -358.5t-258 -261t-357.5 -97.5h-398v633h-106zM371 190h174q90 1 176.5 38.5t156 103.5t112 166t42.5 217q0 113 -42.5 213.5t-111.5 168t-156.5 106.5t-176.5 40h-174v-446 h264v-164h-264v-443z" />
<glyph unicode="&#xd1;" horiz-adv-x="1484" d="M143 0h213v983l918 -1016h67v1467h-211v-990l-919 1018h-68v-1462zM391 1638h123q0 62 20 87.5t58 25.5q24 0 84 -30.5t127 -61.5t108 -31q90 0 141.5 70.5t51.5 189.5h-123q0 -63 -16 -86.5t-54 -23.5q-28 0 -153.5 59t-173.5 59q-92 0 -142.5 -69.5t-50.5 -188.5z" />
<glyph unicode="&#xd2;" horiz-adv-x="1579" d="M61 719q0 -150 58.5 -287t157 -236t235.5 -157.5t287 -58.5t287 58.5t236 157.5t157.5 236t58.5 287q0 151 -58.5 287.5t-157.5 235t-236 156.5t-287 58t-287 -58t-235.5 -156.5t-157 -235t-58.5 -287.5zM289 715q0 119 44.5 223t117 173.5t162.5 109t182 39.5 q74 0 147.5 -25t138 -73t114.5 -113t79 -151.5t29 -182.5q0 -97 -29 -184t-79 -152t-114.5 -112.5t-138 -72t-147.5 -24.5q-92 0 -182 39t-162.5 108t-117 173.5t-44.5 224.5zM475 1933h215l197 -295h-164z" />
<glyph unicode="&#xd3;" horiz-adv-x="1579" d="M61 719q0 -150 58.5 -287t157 -236t235.5 -157.5t287 -58.5t287 58.5t236 157.5t157.5 236t58.5 287q0 151 -58.5 287.5t-157.5 235t-236 156.5t-287 58t-287 -58t-235.5 -156.5t-157 -235t-58.5 -287.5zM289 715q0 119 44.5 223t117 173.5t162.5 109t182 39.5 q74 0 147.5 -25t138 -73t114.5 -113t79 -151.5t29 -182.5q0 -97 -29 -184t-79 -152t-114.5 -112.5t-138 -72t-147.5 -24.5q-92 0 -182 39t-162.5 108t-117 173.5t-44.5 224.5zM725 1638l197 295h215l-248 -295h-164z" />
<glyph unicode="&#xd4;" horiz-adv-x="1579" d="M61 719q0 151 58.5 287.5t157 235t235.5 156.5t287 58t287 -58t236 -156.5t157.5 -235t58.5 -287.5q0 -150 -58.5 -287t-157.5 -236t-236 -157.5t-287 -58.5t-287 58.5t-235.5 157.5t-157 236t-58.5 287zM289 715q0 -120 44.5 -224.5t117 -173.5t162.5 -108t182 -39 q74 0 147.5 24.5t138 72t114.5 112.5t79 152t29 184q0 96 -29 182.5t-79 151.5t-114.5 113t-138 73t-147.5 25q-92 0 -182 -39.5t-162.5 -109t-117 -173.5t-44.5 -223zM481 1638l197 295h215l197 -295h-164l-140 168l-141 -168h-164z" />
<glyph unicode="&#xd5;" horiz-adv-x="1579" d="M61 719q0 -150 58.5 -287t157 -236t235.5 -157.5t287 -58.5t287 58.5t236 157.5t157.5 236t58.5 287q0 151 -58.5 287.5t-157.5 235t-236 156.5t-287 58t-287 -58t-235.5 -156.5t-157 -235t-58.5 -287.5zM289 715q0 119 44.5 223t117 173.5t162.5 109t182 39.5 q74 0 147.5 -25t138 -73t114.5 -113t79 -151.5t29 -182.5q0 -97 -29 -184t-79 -152t-114.5 -112.5t-138 -72t-147.5 -24.5q-92 0 -182 39t-162.5 108t-117 173.5t-44.5 224.5zM442 1638h123q0 62 20 87.5t58 25.5q24 0 84.5 -30.5t127.5 -61.5t108 -31q90 0 141 70t51 190 h-123q0 -63 -15.5 -86.5t-53.5 -23.5q-28 0 -154 59t-174 59q-92 0 -142.5 -69.5t-50.5 -188.5z" />
<glyph unicode="&#xd6;" horiz-adv-x="1579" d="M61 719q0 -150 58.5 -287t157 -236t235.5 -157.5t287 -58.5t287 58.5t236 157.5t157.5 236t58.5 287q0 151 -58.5 287.5t-157.5 235t-236 156.5t-287 58t-287 -58t-235.5 -156.5t-157 -235t-58.5 -287.5zM289 715q0 119 44.5 223t117 173.5t162.5 109t182 39.5 q74 0 147.5 -25t138 -73t114.5 -113t79 -151.5t29 -182.5q0 -97 -29 -184t-79 -152t-114.5 -112.5t-138 -72t-147.5 -24.5q-92 0 -182 39t-162.5 108t-117 173.5t-44.5 224.5zM479 1753q0 -48 36 -81.5t89 -33.5q48 0 83.5 34t35.5 81q0 46 -36 80.5t-83 34.5q-53 0 -89 -34 t-36 -81zM879 1753q0 -48 34.5 -81.5t87.5 -33.5q48 0 83.5 34t35.5 81q0 46 -36 80.5t-83 34.5q-53 0 -87.5 -34t-34.5 -81z" />
<glyph unicode="&#xd8;" horiz-adv-x="1579" d="M61 719q0 151 58.5 287.5t157 235t235.5 156.5t287 58q213 0 393 -113l96 123h191l-168 -215q107 -102 167 -239.5t60 -292.5q0 -150 -58.5 -287t-157.5 -236t-236 -157.5t-287 -58.5q-214 0 -393 112l-97 -123h-190l170 217q-107 101 -167.5 239.5t-60.5 293.5zM289 715 q0 -211 129 -363l643 824q-130 84 -266 84q-92 0 -182 -39.5t-162.5 -109t-117 -173.5t-44.5 -223zM530 252q127 -82 265 -82q74 0 147.5 24.5t138 72t114.5 112.5t79 152t29 184q0 208 -129 360z" />
<glyph unicode="&#xd9;" d="M90 549v887h215v-887q0 -98 24 -170t67.5 -112.5t97 -59.5t118.5 -19q67 0 121.5 19t99 59.5t69 112.5t24.5 170v887h213v-887q0 -126 -42.5 -233.5t-114.5 -179.5t-166.5 -112t-199.5 -40t-200.5 40t-168 112t-115 179.5t-42.5 233.5zM293 1933h215l197 -295h-164z" />
<glyph unicode="&#xda;" d="M90 549v887h215v-887q0 -98 24 -170t67.5 -112.5t97 -59.5t118.5 -19q67 0 121.5 19t99 59.5t69 112.5t24.5 170v887h213v-887q0 -126 -42.5 -233.5t-114.5 -179.5t-166.5 -112t-199.5 -40t-200.5 40t-168 112t-115 179.5t-42.5 233.5zM522 1638l197 295h215l-248 -295 h-164z" />
<glyph unicode="&#xdb;" d="M90 549v887h215v-887q0 -98 24 -170t67.5 -112.5t97 -59.5t118.5 -19q67 0 121.5 19t99 59.5t69 112.5t24.5 170v887h213v-887q0 -126 -42.5 -233.5t-114.5 -179.5t-166.5 -112t-199.5 -40t-200.5 40t-168 112t-115 179.5t-42.5 233.5zM317 1638l197 295h215l197 -295 h-164l-139 168l-142 -168h-164z" />
<glyph unicode="&#xdc;" d="M90 549v887h215v-887q0 -98 24 -170t67.5 -112.5t97 -59.5t118.5 -19q67 0 121.5 19t99 59.5t69 112.5t24.5 170v887h213v-887q0 -126 -42.5 -233.5t-114.5 -179.5t-166.5 -112t-199.5 -40t-200.5 40t-168 112t-115 179.5t-42.5 233.5zM295 1753q0 47 36 81t89 34 q47 0 83 -34.5t36 -80.5q0 -47 -35.5 -81t-83.5 -34q-53 0 -89 33.5t-36 81.5zM694 1753q0 47 35 81t88 34q47 0 83 -34.5t36 -80.5q0 -47 -35.5 -81t-83.5 -34q-53 0 -88 33.5t-35 81.5z" />
<glyph unicode="&#xdd;" horiz-adv-x="1206" d="M82 1434h225l344 -607l350 607h226l-473 -799v-635h-209v635zM573 1638l197 295h215l-248 -295h-164z" />
<glyph unicode="&#xde;" horiz-adv-x="993" d="M137 0v1466h199v-264h86q252 0 391 -118t139 -306t-139 -307t-391 -119h-86v-352h-199zM336 541h86q81 0 141.5 14t95 36t55.5 54.5t27.5 62t6.5 66.5t-6.5 67t-27.5 63t-55.5 56t-95 37.5t-141.5 14.5h-86v-471z" />
<glyph unicode="&#xdf;" horiz-adv-x="1064" d="M123 0h194v1047q0 92 60.5 155.5t154.5 63.5t157 -58.5t63 -146.5q0 -84 -62 -133t-158 -49h-53v-174h53q114 0 195.5 -83t81.5 -194q0 -107 -80.5 -181.5t-196.5 -74.5q-104 0 -112 2v-182q8 -2 112 -2q194 0 333 128t139 310q0 74 -19.5 140t-47 107t-55.5 71t-48 42 l-19 13q5 3 14 9.5t31 29.5t39 50.5t31 73.5t14 97q0 162 -120.5 274.5t-291.5 112.5q-104 0 -198 -43.5t-152.5 -123t-58.5 -173.5v-1108z" />
<glyph unicode="&#xe0;" horiz-adv-x="1273" d="M96 508q0 -106 42 -203.5t113 -168t169.5 -112.5t206.5 -42q63 0 120 14.5t93 35t63 41.5t39 35l12 15v-123h199v1024h-199v-129q-4 6 -12.5 15.5t-38 33.5t-64 43t-92 34t-120.5 15q-144 0 -266.5 -70t-193.5 -191.5t-71 -266.5zM299 1528h215l197 -295h-164zM311 504 q0 143 93.5 245.5t226.5 102.5t226 -102.5t93 -245.5q0 -142 -93 -243t-226 -101t-226.5 101t-93.5 243z" />
<glyph unicode="&#xe1;" horiz-adv-x="1273" d="M96 508q0 -106 42 -203.5t113 -168t169.5 -112.5t206.5 -42q63 0 120 14.5t93 35t63 41.5t39 35l12 15v-123h199v1024h-199v-129q-4 6 -12.5 15.5t-38 33.5t-64 43t-92 34t-120.5 15q-144 0 -266.5 -70t-193.5 -191.5t-71 -266.5zM311 504q0 143 93.5 245.5t226.5 102.5 t226 -102.5t93 -245.5q0 -142 -93 -243t-226 -101t-226.5 101t-93.5 243zM575 1233l197 295h215l-248 -295h-164z" />
<glyph unicode="&#xe2;" horiz-adv-x="1273" d="M96 508q0 145 71 266.5t193.5 191.5t266.5 70q63 0 120 -14.5t93 -35t63 -41.5t39 -35l12 -15v129h199v-1024h-199v123q-4 -6 -12.5 -15.5t-38 -33.5t-64 -43t-92 -34t-120.5 -15q-108 0 -206.5 42t-169.5 112.5t-113 168t-42 203.5zM311 504q0 -142 93.5 -243 t226.5 -101t226 101t93 243q0 143 -93 245.5t-226 102.5t-226.5 -102.5t-93.5 -245.5zM336 1233l196 295h216l196 -295h-164l-139 168l-141 -168h-164z" />
<glyph unicode="&#xe3;" horiz-adv-x="1273" d="M96 508q0 -106 42 -203.5t113 -168t169.5 -112.5t206.5 -42q63 0 120 14.5t93 35t63 41.5t39 35l12 15v-123h199v1024h-199v-129q-4 6 -12.5 15.5t-38 33.5t-64 43t-92 34t-120.5 15q-144 0 -266.5 -70t-193.5 -191.5t-71 -266.5zM272 1241h123q0 62 20 87.5t58 25.5 q24 0 84.5 -31t127.5 -61.5t108 -30.5q90 0 141 70t51 190h-123q0 -63 -15.5 -87t-53.5 -24q-28 0 -154 59.5t-174 59.5q-92 0 -142.5 -69.5t-50.5 -188.5zM311 504q0 143 93.5 245.5t226.5 102.5t226 -102.5t93 -245.5q0 -142 -93 -243t-226 -101t-226.5 101t-93.5 243z " />
<glyph unicode="&#xe4;" horiz-adv-x="1273" d="M96 508q0 -106 42 -203.5t113 -168t169.5 -112.5t206.5 -42q63 0 120 14.5t93 35t63 41.5t39 35l12 15v-123h199v1024h-199v-129q-4 6 -12.5 15.5t-38 33.5t-64 43t-92 34t-120.5 15q-144 0 -266.5 -70t-193.5 -191.5t-71 -266.5zM311 504q0 143 93.5 245.5t226.5 102.5 t226 -102.5t93 -245.5q0 -142 -93 -243t-226 -101t-226.5 101t-93.5 243zM315 1352q0 -48 36 -81.5t89 -33.5q48 0 83.5 34t35.5 81q0 46 -36 80t-83 34q-53 0 -89 -33.5t-36 -80.5zM715 1352q0 -48 35 -81.5t88 -33.5q48 0 83 34t35 81q0 46 -35.5 80t-82.5 34 q-53 0 -88 -33.5t-35 -80.5z" />
<glyph unicode="&#xe5;" horiz-adv-x="1273" d="M96 508q0 -106 42 -203.5t113 -168t169.5 -112.5t206.5 -42q63 0 120 14.5t93 35t63 41.5t39 35l12 15v-123h199v1024h-199v-129q-4 6 -12.5 15.5t-38 33.5t-64 43t-92 34t-120.5 15q-144 0 -266.5 -70t-193.5 -191.5t-71 -266.5zM311 504q0 143 93.5 245.5t226.5 102.5 t226 -102.5t93 -245.5q0 -142 -93 -243t-226 -101t-226.5 101t-93.5 243zM453 1366q0 77 55 132.5t133 55.5t134 -55.5t56 -132.5q0 -79 -56 -134.5t-134 -55.5t-133 55.5t-55 134.5zM549 1366q0 -38 28 -66t66 -28q37 0 64.5 28t27.5 66q0 37 -27.5 64.5t-64.5 27.5 q-38 0 -66 -27.5t-28 -64.5z" />
<glyph unicode="&#xe6;" horiz-adv-x="2121" d="M96 508q0 145 71 266.5t193.5 191.5t266.5 70q63 0 120 -14.5t93 -35t63 -41.5t39 -35l12 -15v129h199v-123q70 67 162.5 104t195.5 37q144 0 263 -71.5t186.5 -193.5t67.5 -267q0 -34 -7 -78h-819q24 -118 108 -194t197 -76q134 0 219 102h242q-64 -130 -185.5 -207 t-271.5 -77q-103 0 -195.5 37t-162.5 104v-121h-199v123q-4 -6 -12.5 -15.5t-38 -33.5t-64 -43t-92 -34t-120.5 -15q-108 0 -206.5 42t-169.5 112.5t-113 168t-42 203.5zM311 504q0 -142 93.5 -243t226.5 -101t226 101t93 243q0 143 -93 245.5t-226 102.5t-226.5 -102.5 t-93.5 -245.5zM1206 598h596q-25 112 -106 184t-189 72q-109 0 -191.5 -72t-109.5 -184z" />
<glyph unicode="&#xe7;" horiz-adv-x="1187" d="M117 514q0 144 71.5 265.5t193.5 192t265 70.5q159 0 282.5 -88.5t180.5 -232.5h-229q-39 64 -100.5 99.5t-135.5 35.5q-133 0 -226 -101t-93 -243q0 -145 93 -245.5t226 -100.5q78 0 141.5 39.5t102.5 107.5h223q-52 -140 -165.5 -228t-262.5 -97l-22 -82h30 q64 0 117.5 -47.5t52.5 -143.5q0 -81 -57.5 -132.5t-136.5 -51.5q-81 0 -130 48t-49 85l109 19q0 -14 20.5 -29.5t49.5 -15.5q34 0 58 21t24 58q1 34 -22.5 59t-55.5 25q-56 0 -84 -41l-70 33l57 197q-195 28 -326.5 177t-131.5 347z" />
<glyph unicode="&#xe8;" horiz-adv-x="1249" d="M115 510q0 -144 69 -265.5t189.5 -193t265.5 -71.5q150 0 271.5 77t185.5 207h-242q-85 -102 -219 -102q-113 0 -197 76t-108 194h819q6 38 6 78q0 145 -67.5 267t-186 193.5t-262.5 71.5q-145 0 -265.5 -71.5t-189.5 -193.5t-69 -267zM319 1528h216l196 -295h-164z M334 598q27 112 109.5 184t191.5 72q108 0 189 -72t106 -184h-596z" />
<glyph unicode="&#xe9;" horiz-adv-x="1249" d="M115 510q0 -144 69 -265.5t189.5 -193t265.5 -71.5q150 0 271.5 77t185.5 207h-242q-85 -102 -219 -102q-113 0 -197 76t-108 194h819q6 38 6 78q0 145 -67.5 267t-186 193.5t-262.5 71.5q-145 0 -265.5 -71.5t-189.5 -193.5t-69 -267zM334 598q27 112 109.5 184 t191.5 72q108 0 189 -72t106 -184h-596zM582 1233l196 295h215l-248 -295h-163z" />
<glyph unicode="&#xea;" horiz-adv-x="1249" d="M115 510q0 145 69 267t189.5 193.5t265.5 71.5q144 0 262.5 -71.5t186 -193.5t67.5 -267q0 -40 -6 -78h-819q24 -118 108 -194t197 -76q134 0 219 102h242q-64 -130 -185.5 -207t-271.5 -77q-145 0 -265.5 71.5t-189.5 193t-69 265.5zM334 598h596q-25 112 -106 184 t-189 72q-109 0 -191.5 -72t-109.5 -184zM336 1233l196 295h216l196 -295h-164l-139 168l-141 -168h-164z" />
<glyph unicode="&#xeb;" horiz-adv-x="1249" d="M115 510q0 -144 69 -265.5t189.5 -193t265.5 -71.5q150 0 271.5 77t185.5 207h-242q-85 -102 -219 -102q-113 0 -197 76t-108 194h819q6 38 6 78q0 145 -67.5 267t-186 193.5t-262.5 71.5q-145 0 -265.5 -71.5t-189.5 -193.5t-69 -267zM319 1352q0 -48 36 -81.5t89 -33.5 q48 0 83.5 34t35.5 81q0 46 -36 80t-83 34q-53 0 -89 -33.5t-36 -80.5zM334 598q27 112 109.5 184t191.5 72q108 0 189 -72t106 -184h-596zM719 1352q0 -48 35 -81.5t88 -33.5q48 0 83.5 34t35.5 81q0 46 -36 80t-83 34q-53 0 -88 -33.5t-35 -80.5z" />
<glyph unicode="&#xec;" horiz-adv-x="583" d="M-49 1528h215l196 -295h-163zM193 0h202v1022h-202v-1022z" />
<glyph unicode="&#xed;" horiz-adv-x="583" d="M193 0h202v1022h-202v-1022zM229 1233l197 295h195l-248 -295h-144z" />
<glyph unicode="&#xee;" horiz-adv-x="583" d="M-12 1233l196 295h215l197 -295h-164l-139 168l-141 -168h-164zM193 0v1022h202v-1022h-202z" />
<glyph unicode="&#xef;" horiz-adv-x="583" d="M-29 1352q0 -48 36 -81.5t89 -33.5q48 0 83.5 34t35.5 81q0 46 -36 80t-83 34q-53 0 -89 -33.5t-36 -80.5zM193 0h202v1022h-202v-1022zM371 1352q0 -48 35 -81.5t88 -33.5q48 0 83 34t35 81q0 46 -35.5 80t-82.5 34q-53 0 -88 -33.5t-35 -80.5z" />
<glyph unicode="&#xf0;" horiz-adv-x="1339" d="M135 508q0 145 71 266.5t193.5 191.5t266.5 70q90 0 156 -16t87 -32l21 -15q-48 120 -129 258l-191 -35v164l95 16q-64 93 -134 172h222q57 -66 104 -137l168 31v-164l-76 -14q69 -121 135 -291q36 -95 54 -196t18 -155v-53q0 -125 -30.5 -226t-81.5 -167t-120 -110.5 t-143.5 -64t-154.5 -19.5q-108 0 -206.5 42t-169.5 112.5t-113 168t-42 203.5zM350 504q0 -142 93.5 -243t226.5 -101q131 0 223 101t92 243q0 143 -92 245.5t-223 102.5q-133 0 -226.5 -102.5t-93.5 -245.5z" />
<glyph unicode="&#xf1;" horiz-adv-x="1167" d="M160 0v1024h202v-94q83 114 285 114q60 0 116.5 -12.5t114 -45.5t100 -83.5t69 -132.5t26.5 -186v-584h-203v584q0 67 -23 118.5t-58.5 79t-71.5 41t-70 13.5q-58 0 -107 -14.5t-90 -45.5t-64.5 -85.5t-23.5 -127.5v-563h-202zM289 1241q0 119 50 188.5t142 69.5 q48 0 174 -59.5t154 -59.5q38 0 54 24t16 87h122q0 -120 -51 -190t-141 -70q-41 0 -108 30.5t-127.5 61.5t-84.5 31q-38 0 -57.5 -25t-19.5 -88h-123z" />
<glyph unicode="&#xf2;" horiz-adv-x="1249" d="M109 514q0 -143 70.5 -264t191.5 -191.5t264 -70.5t263.5 70.5t190.5 191.5t70 264t-70 263.5t-190.5 190.5t-263.5 70t-264 -70t-191.5 -190.5t-70.5 -263.5zM313 1528h215l197 -295h-164zM315 510q0 142 92.5 243t223.5 101q130 0 222.5 -101.5t92.5 -242.5 q0 -143 -92.5 -243.5t-222.5 -100.5q-132 0 -224 100.5t-92 243.5z" />
<glyph unicode="&#xf3;" horiz-adv-x="1249" d="M109 514q0 -143 70.5 -264t191.5 -191.5t264 -70.5t263.5 70.5t190.5 191.5t70 264t-70 263.5t-190.5 190.5t-263.5 70t-264 -70t-191.5 -190.5t-70.5 -263.5zM315 510q0 142 92.5 243t223.5 101q130 0 222.5 -101.5t92.5 -242.5q0 -143 -92.5 -243.5t-222.5 -100.5 q-132 0 -224 100.5t-92 243.5zM561 1229l197 295h215l-248 -295h-164z" />
<glyph unicode="&#xf4;" horiz-adv-x="1249" d="M109 514q0 143 70.5 263.5t191.5 190.5t264 70t263.5 -70t190.5 -190.5t70 -263.5t-70 -264t-190.5 -191.5t-263.5 -70.5t-264 70.5t-191.5 191.5t-70.5 264zM315 510q0 -143 92 -243.5t224 -100.5q130 0 222.5 100.5t92.5 243.5q0 141 -92.5 242.5t-222.5 101.5 q-131 0 -223.5 -101t-92.5 -243zM332 1233l196 295h215l197 -295h-164l-139 168l-141 -168h-164z" />
<glyph unicode="&#xf5;" horiz-adv-x="1249" d="M109 514q0 -143 70.5 -264t191.5 -191.5t264 -70.5t263.5 70.5t190.5 191.5t70 264t-70 263.5t-190.5 190.5t-263.5 70t-264 -70t-191.5 -190.5t-70.5 -263.5zM279 1241h122q0 62 20 87.5t58 25.5q24 0 84.5 -31t127.5 -61.5t108 -30.5q90 0 141 70t51 190h-123 q0 -63 -15.5 -87t-53.5 -24q-28 0 -154 59.5t-174 59.5q-92 0 -142 -69.5t-50 -188.5zM315 510q0 142 92.5 243t223.5 101q130 0 222.5 -101.5t92.5 -242.5q0 -143 -92.5 -243.5t-222.5 -100.5q-132 0 -224 100.5t-92 243.5z" />
<glyph unicode="&#xf6;" horiz-adv-x="1249" d="M109 514q0 -143 70.5 -264t191.5 -191.5t264 -70.5t263.5 70.5t190.5 191.5t70 264t-70 263.5t-190.5 190.5t-263.5 70t-264 -70t-191.5 -190.5t-70.5 -263.5zM313 1352q0 -48 36 -81.5t89 -33.5q48 0 83.5 34t35.5 81q0 46 -36 80t-83 34q-53 0 -89 -33.5t-36 -80.5z M315 510q0 142 92.5 243t223.5 101q130 0 222.5 -101.5t92.5 -242.5q0 -143 -92.5 -243.5t-222.5 -100.5q-132 0 -224 100.5t-92 243.5zM713 1352q0 -48 35 -81.5t88 -33.5q48 0 83 34t35 81q0 46 -35.5 80t-82.5 34q-53 0 -88 -33.5t-35 -80.5z" />
<glyph unicode="&#xf8;" horiz-adv-x="1249" d="M63 -18l173 190q-127 146 -127 342q0 143 70.5 263.5t191.5 190.5t264 70q166 0 297 -92l84 94h190l-170 -188q123 -145 123 -338q0 -143 -70 -264t-190.5 -191.5t-263.5 -70.5q-162 0 -295 90l-86 -96h-191zM315 510q0 -104 52 -191l432 482q-75 53 -168 53 q-131 0 -223.5 -101t-92.5 -243zM465 217q76 -51 166 -51q130 0 222.5 100.5t92.5 243.5q0 99 -49 186z" />
<glyph unicode="&#xf9;" horiz-adv-x="1118" d="M102 461v583h203v-583q0 -67 23 -118.5t58.5 -79t71.5 -41t70 -13.5q58 0 107 14.5t90 45t64.5 85t23.5 127.5v563h203v-1024h-203v95q-84 -115 -285 -115q-60 0 -116.5 12.5t-114 45.5t-100 83.5t-69 133t-26.5 186.5zM221 1528h215l197 -295h-164z" />
<glyph unicode="&#xfa;" horiz-adv-x="1118" d="M102 461v583h203v-583q0 -67 23 -118.5t58.5 -79t71.5 -41t70 -13.5q58 0 107 14.5t90 45t64.5 85t23.5 127.5v563h203v-1024h-203v95q-84 -115 -285 -115q-60 0 -116.5 12.5t-114 45.5t-100 83.5t-69 133t-26.5 186.5zM477 1233l197 295h215l-248 -295h-164z" />
<glyph unicode="&#xfb;" horiz-adv-x="1118" d="M102 461v583h203v-583q0 -67 23 -118.5t58.5 -79t71.5 -41t70 -13.5q58 0 107 14.5t90 45t64.5 85t23.5 127.5v563h203v-1024h-203v95q-84 -115 -285 -115q-60 0 -116.5 12.5t-114 45.5t-100 83.5t-69 133t-26.5 186.5zM250 1233l196 295h216l196 -295h-164l-139 168 l-141 -168h-164z" />
<glyph unicode="&#xfc;" horiz-adv-x="1118" d="M102 461v583h203v-583q0 -67 23 -118.5t58.5 -79t71.5 -41t70 -13.5q58 0 107 14.5t90 45t64.5 85t23.5 127.5v563h203v-1024h-203v95q-84 -115 -285 -115q-60 0 -116.5 12.5t-114 45.5t-100 83.5t-69 133t-26.5 186.5zM233 1352q0 47 36 80.5t89 33.5q47 0 83 -34 t36 -80q0 -47 -35.5 -81t-83.5 -34q-53 0 -89 33.5t-36 81.5zM633 1352q0 47 35 80.5t88 33.5q47 0 82.5 -34t35.5 -80q0 -47 -35 -81t-83 -34q-53 0 -88 33.5t-35 81.5z" />
<glyph unicode="&#xfd;" horiz-adv-x="1050" d="M20 1028h228l330 -588l272 588h221l-704 -1520h-222l330 711zM487 1233l197 295h215l-248 -295h-164z" />
<glyph unicode="&#xfe;" d="M150 -430v1864l192 61v-590q5 5 14.5 14t41.5 32t67.5 40.5t91 32t113.5 14.5q143 0 264 -70.5t191.5 -191.5t70.5 -264t-70.5 -264t-191.5 -191.5t-264 -70.5q-58 0 -113 14t-92.5 33.5t-66.5 39.5t-42 34l-14 14v-613zM350 516q0 -133 94 -236.5t222 -103.5 q130 0 223.5 103.5t93.5 236.5t-93.5 236.5t-223.5 103.5q-128 0 -222 -103.5t-94 -236.5z" />
<glyph unicode="&#xff;" horiz-adv-x="1050" d="M20 1028h228l330 -588l272 588h221l-704 -1520h-222l330 711zM233 1352q0 -48 36 -81.5t89 -33.5q48 0 83.5 34t35.5 81q0 46 -36 80t-83 34q-53 0 -89 -33.5t-36 -80.5zM633 1352q0 -48 35 -81.5t88 -33.5q48 0 83 34t35 81q0 46 -35.5 80t-82.5 34q-53 0 -88 -33.5 t-35 -80.5z" />
<glyph unicode="&#x152;" horiz-adv-x="2344" d="M61 719q0 151 58.5 287.5t157 235t235.5 156.5t287 58q165 0 310.5 -67.5t248.5 -186.5v232h825v-195h-620v-360h579v-181h-579v-503h620v-195h-825v236q-103 -119 -249 -187.5t-310 -68.5q-150 0 -287 58.5t-235.5 157.5t-157 236t-58.5 287zM289 715 q0 -120 44.5 -224.5t117 -173.5t162.5 -108t182 -39q74 0 147.5 24.5t138 72t114.5 112.5t79 152t29 184q0 96 -29 182.5t-79 151.5t-114.5 113t-138 73t-147.5 25q-92 0 -182 -39.5t-162.5 -109t-117 -173.5t-44.5 -223z" />
<glyph unicode="&#x153;" horiz-adv-x="2148" d="M109 514q0 143 70.5 263.5t191.5 190.5t264 70t262 -69.5t188 -186.5q70 119 189.5 189.5t263.5 70.5t262.5 -71.5t186 -193.5t67.5 -267q0 -40 -6 -78h-819q24 -118 108 -194t197 -76q134 0 219 102h242q-64 -130 -185.5 -207t-271.5 -77q-145 0 -265.5 71.5 t-187.5 190.5q-71 -116 -189.5 -185t-260.5 -69q-143 0 -264 70.5t-191.5 191.5t-70.5 264zM315 510q0 -143 92 -243.5t224 -100.5q130 0 222.5 100.5t92.5 243.5q0 141 -92.5 242.5t-222.5 101.5q-131 0 -223.5 -101t-92.5 -243zM1233 598h596q-25 112 -106 184t-189 72 q-109 0 -191.5 -72t-109.5 -184z" />
<glyph unicode="&#x178;" horiz-adv-x="1206" d="M82 1434h225l344 -607l350 607h226l-473 -799v-635h-209v635zM332 1753q0 47 36 81t89 34q47 0 82.5 -34.5t35.5 -80.5q0 -47 -35 -81t-83 -34q-53 0 -89 33.5t-36 81.5zM731 1753q0 47 35 81t88 34q47 0 83 -34.5t36 -80.5q0 -47 -35.5 -81t-83.5 -34q-53 0 -88 33.5 t-35 81.5z" />
<glyph unicode="&#x2000;" horiz-adv-x="1008" />
<glyph unicode="&#x2001;" horiz-adv-x="2017" />
<glyph unicode="&#x2002;" horiz-adv-x="1008" />
<glyph unicode="&#x2003;" horiz-adv-x="2017" />
<glyph unicode="&#x2004;" horiz-adv-x="672" />
<glyph unicode="&#x2005;" horiz-adv-x="504" />
<glyph unicode="&#x2006;" horiz-adv-x="336" />
<glyph unicode="&#x2007;" horiz-adv-x="336" />
<glyph unicode="&#x2008;" horiz-adv-x="252" />
<glyph unicode="&#x2009;" horiz-adv-x="403" />
<glyph unicode="&#x200a;" horiz-adv-x="112" />
<glyph unicode="&#x2010;" horiz-adv-x="942" d="M143 498v164h656v-164h-656z" />
<glyph unicode="&#x2011;" horiz-adv-x="942" d="M143 498v164h656v-164h-656z" />
<glyph unicode="&#x2012;" horiz-adv-x="942" d="M143 498v164h656v-164h-656z" />
<glyph unicode="&#x2013;" d="M104 506v164h1020v-164h-1020z" />
<glyph unicode="&#x2014;" horiz-adv-x="2203" d="M82 506v164h2040v-164h-2040z" />
<glyph unicode="&#x2018;" horiz-adv-x="452" d="M82 940l145 498h144l-95 -498h-194z" />
<glyph unicode="&#x2019;" horiz-adv-x="370" d="M82 940l94 498h195l-146 -498h-143z" />
<glyph unicode="&#x201c;" horiz-adv-x="743" d="M82 940l145 498h133l-94 -498h-184zM383 940l145 498h134l-95 -498h-184z" />
<glyph unicode="&#x201d;" horiz-adv-x="743" d="M82 940l94 498h184l-145 -498h-133zM383 940l94 498h185l-146 -498h-133z" />
<glyph unicode="&#x2022;" horiz-adv-x="958" d="M164 563q0 -125 91.5 -213t223.5 -88q129 0 222.5 88.5t93.5 212.5q0 123 -93.5 211t-222.5 88q-131 0 -223 -87.5t-92 -211.5z" />
<glyph unicode="&#x2026;" d="M102 123q0 54 41 92.5t99 38.5q57 0 98 -38.5t41 -92.5q0 -55 -41 -94t-98 -39q-58 0 -99 38.5t-41 94.5z" />
<glyph unicode="&#x202f;" horiz-adv-x="403" />
<glyph unicode="&#x205f;" horiz-adv-x="504" />
<glyph unicode="&#x20ac;" horiz-adv-x="1595" d="M41 485v154h147q-4 54 -4 80q0 30 4 84h-147v153h182q74 221 266 360.5t433 139.5q224 0 399.5 -120t232.5 -312h-251q-28 71 -90 125.5t-139 82.5t-156 28q-135 0 -261.5 -83t-191.5 -221h481v-153h-528q-6 -43 -6 -88q0 -26 4 -76h530v-154h-487q63 -144 191 -229.5 t268 -85.5q123 0 234 63.5t151 169.5h245q-57 -188 -231 -305.5t-395 -117.5q-241 0 -434 141t-267 364h-180z" />
<glyph unicode="&#x2122;" horiz-adv-x="1677" d="M82 1524v114h561v-114h-215v-752h-129v752h-217zM700 772l107 885h41l299 -670l301 670h41l106 -885h-116l-72 483l-240 -503h-39l-237 505l-74 -485h-117z" />
<glyph unicode="&#x25fc;" horiz-adv-x="1024" d="M0 0v1024h1024v-1024h-1024z" />
<glyph unicode="&#xfb01;" horiz-adv-x="1329" d="M109 836v188h182v227q0 155 108.5 265t262.5 110q82 0 163 -35l-86 -176q-33 23 -77 23q-70 0 -119 -53t-49 -132v-229h698v-1024h-203v836h-495v-836h-203v836h-182zM948 1434q0 54 40.5 92.5t98.5 38.5q57 0 98.5 -38.5t41.5 -92.5q0 -55 -41.5 -94.5t-98.5 -39.5 q-58 0 -98.5 39t-40.5 95z" />
<glyph unicode="&#xfb03;" horiz-adv-x="2070" d="M102 836v188h183v201q0 155 108 264.5t262 109.5q86 0 164 -34l-86 -176q-32 22 -78 22q-70 0 -119 -52.5t-49 -131.5v-203h496v227q0 155 108.5 265t262.5 110q83 0 164 -35l-86 -176q-33 23 -78 23q-70 0 -119 -53t-49 -132v-229h698v-1024h-203v836h-495v-836h-203 v836h-496v-836h-202v836h-183zM1640 1434q0 54 41 92.5t99 38.5q57 0 98 -38.5t41 -92.5q0 -55 -41 -94.5t-98 -39.5q-58 0 -99 39t-41 95z" />
</font>
</defs>
</svg>
